<svg width="176" height="38" viewBox="0 0 176 38" fill="none" xmlns="http://www.w3.org/2000/svg">
<path d="M19 38C29.4934 38 38 29.4934 38 19C38 8.50659 29.4934 0 19 0C8.50659 0 0 8.50659 0 19C0 29.4934 8.50659 38 19 38Z" fill="#FFD60A"/>
<path d="M23.15 22.16H16.7L15.11 26.81H11L18.56 5.66H21.59L29.15 26.81H24.83L23.15 22.16ZM17.75 18.86H22.25L20.69 14.18L20.06 10.88H19.91L19.28 14.21L17.75 18.86ZM30.8741 11.81H33.7241L34.1741 13.61H34.2941C34.8141 12.85 35.4241 12.29 36.1241 11.93C36.8441 11.57 37.7141 11.39 38.7341 11.39C40.6141 11.39 42.0241 11.99 42.9641 13.19C43.9041 14.37 44.3741 16.28 44.3741 18.92C44.3741 20.2 44.2241 21.36 43.9241 22.4C43.6241 23.42 43.1741 24.29 42.5741 25.01C41.9941 25.73 41.2741 26.28 40.4141 26.66C39.5741 27.04 38.6041 27.23 37.5041 27.23C36.8841 27.23 36.3741 27.18 35.9741 27.08C35.5741 27 35.1741 26.86 34.7741 26.66V32.81H30.8741V11.81ZM37.5641 14.69C36.8041 14.69 36.2041 14.88 35.7641 15.26C35.3441 15.64 35.0141 16.21 34.7741 16.97V23.21C35.0541 23.43 35.3541 23.61 35.6741 23.75C36.0141 23.87 36.4541 23.93 36.9941 23.93C38.1141 23.93 38.9541 23.54 39.5141 22.76C40.0741 21.96 40.3541 20.65 40.3541 18.83C40.3541 17.51 40.1341 16.49 39.6941 15.77C39.2541 15.05 38.5441 14.69 37.5641 14.69ZM52.0252 20.6H50.9752V26.81H47.0752V11.81H50.9752V18.2L51.9052 17.78L55.4152 11.81H59.5852L55.9552 17.51L54.4252 18.65L56.1052 19.82L60.1552 26.81H55.6852L52.0252 20.6ZM60.6521 19.31C60.6521 16.77 61.2721 14.82 62.5121 13.46C63.7521 12.08 65.4921 11.39 67.7321 11.39C68.9321 11.39 69.9721 11.58 70.8521 11.96C71.7321 12.34 72.4621 12.88 73.0421 13.58C73.6221 14.26 74.0521 15.09 74.3321 16.07C74.6321 17.05 74.7821 18.13 74.7821 19.31C74.7821 21.85 74.1621 23.81 72.9221 25.19C71.7021 26.55 69.9721 27.23 67.7321 27.23C66.5321 27.23 65.4921 27.04 64.6121 26.66C63.7321 26.28 62.9921 25.75 62.3921 25.07C61.8121 24.37 61.3721 23.53 61.0721 22.55C60.7921 21.57 60.6521 20.49 60.6521 19.31ZM64.6721 19.31C64.6721 19.97 64.7321 20.58 64.8521 21.14C64.9721 21.7 65.1521 22.19 65.3921 22.61C65.6321 23.03 65.9421 23.36 66.3221 23.6C66.7221 23.82 67.1921 23.93 67.7321 23.93C68.7521 23.93 69.5121 23.56 70.0121 22.82C70.5121 22.08 70.7621 20.91 70.7621 19.31C70.7621 17.93 70.5321 16.82 70.0721 15.98C69.6121 15.12 68.8321 14.69 67.7321 14.69C66.7721 14.69 66.0221 15.05 65.4821 15.77C64.9421 16.49 64.6721 17.67 64.6721 19.31ZM93.8654 15.92L94.3154 11.75H94.1354L92.8454 15.11L88.3754 22.94H87.0554L82.3454 15.08L81.0254 11.75H80.8754L81.4754 15.89V26.81H77.5754V5.81H81.3254L86.9354 15.41L87.9254 17.81H88.0454L88.9454 15.35L94.2554 5.81H97.9754V26.81H93.8654V15.92ZM113.48 25.52C112.88 26 112.06 26.41 111.02 26.75C109.999 27.07 108.909 27.23 107.749 27.23C105.329 27.23 103.559 26.53 102.439 25.13C101.319 23.71 100.759 21.77 100.759 19.31C100.759 16.67 101.389 14.69 102.649 13.37C103.909 12.05 105.68 11.39 107.96 11.39C108.72 11.39 109.459 11.49 110.179 11.69C110.899 11.89 111.54 12.22 112.1 12.68C112.66 13.14 113.11 13.76 113.45 14.54C113.79 15.32 113.96 16.29 113.96 17.45C113.96 17.87 113.93 18.32 113.87 18.8C113.83 19.28 113.76 19.78 113.66 20.3H104.66C104.72 21.56 105.039 22.51 105.619 23.15C106.219 23.79 107.179 24.11 108.499 24.11C109.319 24.11 110.049 23.99 110.689 23.75C111.35 23.49 111.85 23.23 112.19 22.97L113.48 25.52ZM107.899 14.51C106.879 14.51 106.119 14.82 105.619 15.44C105.139 16.04 104.849 16.85 104.749 17.87H110.329C110.409 16.79 110.24 15.96 109.82 15.38C109.42 14.8 108.779 14.51 107.899 14.51ZM119.264 14.63C119.844 13.75 120.524 13.12 121.304 12.74C122.104 12.34 123.064 12.14 124.184 12.14C126.004 12.14 127.444 12.7 128.504 13.82C129.584 14.92 130.124 16.64 130.124 18.98C130.124 21.68 129.514 23.73 128.294 25.13C127.074 26.53 125.354 27.23 123.134 27.23C120.814 27.23 119.044 26.46 117.824 24.92C116.604 23.38 115.994 20.98 115.994 17.72C115.994 16 116.094 14.53 116.294 13.31C116.494 12.09 116.774 11.06 117.134 10.22C117.514 9.38 117.954 8.71 118.454 8.21C118.974 7.71 119.544 7.32 120.164 7.04C120.804 6.74 121.484 6.53 122.204 6.41C122.924 6.29 123.684 6.19 124.484 6.11C125.524 6.01 126.414 5.89 127.154 5.75C127.894 5.59 128.444 5.34 128.804 5L128.954 8.48C128.554 8.82 127.984 9.06 127.244 9.2C126.504 9.32 125.504 9.43 124.244 9.53C123.484 9.57 122.814 9.66 122.234 9.8C121.654 9.94 121.154 10.19 120.734 10.55C120.314 10.91 119.974 11.42 119.714 12.08C119.474 12.72 119.294 13.57 119.174 14.63H119.264ZM120.014 19.49C120.014 20.77 120.264 21.83 120.764 22.67C121.264 23.51 122.034 23.93 123.074 23.93C124.154 23.93 124.924 23.55 125.384 22.79C125.864 22.03 126.104 20.93 126.104 19.49C126.104 18.19 125.884 17.19 125.444 16.49C125.004 15.79 124.274 15.44 123.254 15.44C122.154 15.44 121.334 15.8 120.794 16.52C120.274 17.24 120.014 18.23 120.014 19.49ZM144.827 25.52C144.227 26 143.407 26.41 142.367 26.75C141.347 27.07 140.257 27.23 139.097 27.23C136.677 27.23 134.907 26.53 133.787 25.13C132.667 23.71 132.107 21.77 132.107 19.31C132.107 16.67 132.737 14.69 133.997 13.37C135.257 12.05 137.027 11.39 139.307 11.39C140.067 11.39 140.807 11.49 141.527 11.69C142.247 11.89 142.887 12.22 143.447 12.68C144.007 13.14 144.457 13.76 144.797 14.54C145.137 15.32 145.307 16.29 145.307 17.45C145.307 17.87 145.277 18.32 145.217 18.8C145.177 19.28 145.107 19.78 145.007 20.3H136.007C136.067 21.56 136.387 22.51 136.967 23.15C137.567 23.79 138.527 24.11 139.847 24.11C140.667 24.11 141.397 23.99 142.037 23.75C142.697 23.49 143.197 23.23 143.537 22.97L144.827 25.52ZM139.247 14.51C138.227 14.51 137.467 14.82 136.967 15.44C136.487 16.04 136.197 16.85 136.097 17.87H141.677C141.757 16.79 141.587 15.96 141.167 15.38C140.767 14.8 140.127 14.51 139.247 14.51ZM155.899 15.26H152.929C152.809 16.68 152.669 18.09 152.509 19.49C152.349 20.89 152.089 22.15 151.729 23.27C151.389 24.37 150.919 25.27 150.319 25.97C149.719 26.65 148.939 26.99 147.979 26.99C146.819 26.99 145.999 26.84 145.519 26.54L145.999 23.3C146.319 23.42 146.619 23.48 146.899 23.48C147.299 23.48 147.649 23.31 147.949 22.97C148.249 22.63 148.499 22.02 148.699 21.14C148.919 20.26 149.089 19.07 149.209 17.57C149.349 16.05 149.449 14.13 149.509 11.81H159.799V26.81H155.899V15.26ZM167.079 23.54C167.679 23.66 168.249 23.72 168.789 23.72C169.749 23.72 170.439 23.56 170.859 23.24C171.299 22.9 171.519 22.38 171.519 21.68C171.519 20.38 170.639 19.73 168.879 19.73C168.219 19.73 167.619 19.8 167.079 19.94V23.54ZM167.079 17.15C167.559 17.07 168.039 17.02 168.519 17C169.019 16.96 169.469 16.94 169.869 16.94C170.909 16.94 171.789 17.06 172.509 17.3C173.229 17.52 173.809 17.84 174.249 18.26C174.709 18.68 175.039 19.18 175.239 19.76C175.439 20.32 175.539 20.93 175.539 21.59C175.539 23.41 174.999 24.77 173.919 25.67C172.839 26.57 171.009 27.02 168.429 27.02C167.289 27.02 166.299 27 165.459 26.96C164.639 26.92 163.879 26.87 163.179 26.81V11.81H167.079V17.15Z" fill="white"/>
<g clip-path="url(#clip0_211_8)">
<path d="M29 5H11V8H29V5Z" fill="white"/>
</g>
<defs>
<clipPath id="clip0_211_8">
<rect width="18" height="3" fill="white" transform="translate(11 5)"/>
</clipPath>
</defs>
</svg>
